<svg width="103" height="103" viewBox="0 0 103 103" fill="none" xmlns="http://www.w3.org/2000/svg">
<path d="M33.998 11.4668V97.9707H49.6895V11.4668H33.998ZM5.0293 21.123V59.3457H14.2832V21.123H5.0293ZM36.8145 25.75H40.4355V90.125H36.8145V25.75ZM62.7103 27.297L53.602 28.9313L66.0395 98.2344L75.1478 96.6001L62.7103 27.297ZM17.9043 30.7793V85.0957H30.377V30.7793H17.9043ZM74.5346 36.5489L68.9834 38.9173L70.0887 41.5078L75.6398 39.1394L74.5346 36.5489ZM77.0613 42.47L71.5096 44.8382L72.6148 47.4287L78.1657 45.0605L77.0609 42.47H77.0613ZM79.587 48.3913L74.0359 50.7591L94.0875 97.7585L99.6386 95.3901L79.587 48.3913ZM5.0293 62.9668V69.0019H14.2832V62.9668H5.0293ZM43.252 64.375H46.873V90.125H43.252V64.375ZM5.0293 72.623V97.9707H14.2832V72.623H5.0293ZM17.9043 88.7168V97.9707H30.377V88.7168H17.9043Z" fill="black"/>
</svg>
