<svg width="48" height="48" viewBox="0 0 48 48" fill="none" xmlns="http://www.w3.org/2000/svg">
<path d="M38.6666 7.33337H9.33331C8.22874 7.33337 7.33331 8.2288 7.33331 9.33337V38.6667C7.33331 39.7713 8.22874 40.6667 9.33331 40.6667H38.6666C39.7712 40.6667 40.6666 39.7713 40.6666 38.6667V9.33337C40.6666 8.2288 39.7712 7.33337 38.6666 7.33337Z" fill="#61B2E4"/>
<path d="M13.3333 20H17.3333V34H13.3333V20Z" fill="white"/>
<path d="M15.3333 17C16.622 17 17.6667 15.9554 17.6667 14.6667C17.6667 13.378 16.622 12.3334 15.3333 12.3334C14.0447 12.3334 13 13.378 13 14.6667C13 15.9554 14.0447 17 15.3333 17Z" fill="white"/>
<path d="M28.3334 23.3333C26.8607 23.3333 25.6667 24.112 25.6667 26.3333V34H21.6667V20H25.6667V21.4733H25.6654C26.1653 20.9048 26.7809 20.4495 27.471 20.138C28.161 19.8264 28.9096 19.6657 29.6667 19.6666C32.612 19.6666 35 21.8666 35 25.6666V34H31V26.3333C31 24.112 29.8067 23.3333 28.3334 23.3333Z" fill="white"/>
<path d="M38.6666 7.33337H9.33331C8.22874 7.33337 7.33331 8.2288 7.33331 9.33337V38.6667C7.33331 39.7713 8.22874 40.6667 9.33331 40.6667H38.6666C39.7712 40.6667 40.6666 39.7713 40.6666 38.6667V9.33337C40.6666 8.2288 39.7712 7.33337 38.6666 7.33337Z" stroke="black" stroke-width="0.5" stroke-miterlimit="10"/>
<path d="M13.3333 20H17.3333V34H13.3333V20Z" stroke="black" stroke-width="0.5" stroke-linecap="round" stroke-linejoin="round"/>
<path d="M15.3333 17C16.622 17 17.6667 15.9554 17.6667 14.6667C17.6667 13.378 16.622 12.3334 15.3333 12.3334C14.0447 12.3334 13 13.378 13 14.6667C13 15.9554 14.0447 17 15.3333 17Z" stroke="black" stroke-width="0.5" stroke-linecap="round" stroke-linejoin="round"/>
<path d="M28.3333 23.3334C26.8606 23.3334 25.6666 24.1121 25.6666 26.3334V34.0001H21.6666V20.0001H25.6666V21.4734H25.6653C26.1653 20.9049 26.7809 20.4496 27.4709 20.1381C28.1609 19.8265 28.9095 19.6658 29.6666 19.6668C32.612 19.6668 35 21.8668 35 25.6668V34.0001H31V26.3334C31 24.1121 29.8066 23.3334 28.3333 23.3334Z" stroke="black" stroke-width="0.5" stroke-linecap="round" stroke-linejoin="round"/>
</svg>
